<?xml version="1.0" encoding="UTF-8" standalone="no"?>
<!-- Created with Inkscape (http://www.inkscape.org/) -->

<svg
   xmlns:dc="http://purl.org/dc/elements/1.1/"
   xmlns:cc="http://creativecommons.org/ns#"
   xmlns:rdf="http://www.w3.org/1999/02/22-rdf-syntax-ns#"
   xmlns:svg="http://www.w3.org/2000/svg"
   xmlns="http://www.w3.org/2000/svg"
   xmlns:sodipodi="http://sodipodi.sourceforge.net/DTD/sodipodi-0.dtd"
   xmlns:inkscape="http://www.inkscape.org/namespaces/inkscape"
   width="379.311478867"
   height="263.635575435" viewBox="0 0 719.38599 500.0"
   id="svg4607"
   version="1.1"
   inkscape:version="0.48.4 r9939"
   sodipodi:docname="Neues Dokument 3">
  <defs
     id="defs4609" />
  <sodipodi:namedview
     id="base"
     pagecolor="#ffffff"
     bordercolor="#666666"
     borderopacity="1.0"
     inkscape:pageopacity="0.0"
     inkscape:pageshadow="2"
     inkscape:zoom="1.55"
     inkscape:cx="359.69299"
     inkscape:cy="250"
     inkscape:document-units="px"
     inkscape:current-layer="layer1"
     showgrid="false"
     fit-margin-top="0"
     fit-margin-left="0"
     fit-margin-right="0"
     fit-margin-bottom="0"
     inkscape:window-width="1680"
     inkscape:window-height="990"
     inkscape:window-x="-4"
     inkscape:window-y="-4"
     inkscape:window-maximized="1" />
  <metadata
     id="metadata4612">
    <rdf:RDF>
      <cc:Work
         rdf:about="">
        <dc:format>image/svg+xml</dc:format>
        <dc:type
           rdf:resource="http://purl.org/dc/dcmitype/StillImage" />
        <dc:title></dc:title>
      </cc:Work>
    </rdf:RDF>
  </metadata>
  <g
     inkscape:label="Ebene 1"
     inkscape:groupmode="layer"
     id="layer1"
     transform="translate(-302.04268,34.913639)">
    <g
       id="g1244"
       transform="matrix(16.948263,0,0,-16.948263,650.49897,42.752589)">
      <path
         inkscape:connector-curvature="0"
         d="M 0,0 -0.052,0.198 C -0.105,0.128 -0.17,0.07 -0.233,0.022 c 0.061,-0.175 -0.029,-0.376 -0.118,-0.514 0.025,-0.03 0.049,-0.061 0.078,-0.085 0.188,-0.149 0.6,-0.305 0.755,-0.387 C 0.47,-0.74 0.51,-0.372 0.679,-0.056 0.141,-0.118 0,0 0,0 z m -2.109,1.569 c 0.043,-0.01 0.105,-0.031 0.111,-0.122 L -1.999,1.444 -1.916,1.407 c -0.02,-0.025 -0.095,-0.083 -0.171,-0.074 -0.074,0.009 -0.147,0.06 -0.175,0.121 0.074,0.098 0.111,0.125 0.153,0.115 z m 0.494,0.278 -0.03,0.087 c -0.009,0.06 0.043,0.111 0.072,0.036 l 0.128,-0.4 c 0.02,-0.076 -0.043,-0.1 -0.07,-0.035 L -1.547,1.632 -1.831,1.51 c 0.01,0.076 -0.003,0.147 -0.07,0.214 l 0.286,0.123 z m 0.264,0.159 C -1.332,1.964 -1.205,1.552 -1.205,1.552 -1.177,1.435 -1.256,1.452 -1.28,1.514 l -0.147,0.455 c -0.026,0.092 0.04,0.119 0.076,0.037 z m 0.168,0.244 c 0,0 0.125,-0.391 0.146,-0.454 0.02,-0.064 -0.032,-0.135 -0.076,-0.037 -0.023,0.052 -0.145,0.453 -0.145,0.453 -0.022,0.078 0.037,0.136 0.075,0.038 z m 0.225,-0.937 c -0.006,0.049 -0.014,0.111 -0.011,0.156 0.01,0.155 0.118,0.276 0.118,0.276 0.012,0.01 0.088,-0.756 0.088,-0.756 L -0.322,0.26 C -0.378,0.155 -0.851,-0.069 -1.088,-0.017 l 0,0.001 C -1.093,0.086 -1.044,0.409 -1.029,0.64 -1.018,0.8 -1.035,1.124 -1.06,1.189 -1.083,1.181 -1.148,1.164 -1.182,1.166 c -0.034,0.002 -0.091,0.07 -0.122,0.162 0.034,0.034 0.068,0.061 0.135,0.07 0.017,-0.052 0.032,-0.076 0.071,-0.124 0.039,-0.048 0.148,-0.062 0.14,0.039 z m -1.137,-0.11 c 0.199,-0.014 0.29,0.119 0.324,0.19 l 0.147,0.064 c 0.028,-0.049 0.079,-0.102 0.176,-0.086 0,0 0.029,-0.127 0.05,-0.166 0.047,-0.084 0.108,-0.17 0.232,-0.17 0.039,-0.262 -0.039,-0.819 -0.054,-0.964 -0.008,-0.078 -0.03,-0.14 0.053,-0.197 0.149,-0.101 0.524,0.027 0.724,0.134 0.195,0.11 0.394,0.286 0.394,0.473 -0.003,0.037 -0.404,0.668 -0.404,0.668 l 0.019,0.278 -0.36,1.121 c 0,0 -0.211,0.007 -0.233,-0.24 C -1.11,2.667 -1.423,2.589 -1.365,2.293 -1.372,2.294 -1.525,2.321 -1.546,2.115 -1.732,2.208 -1.79,2.004 -1.775,1.92 L -1.947,1.846 C -2.038,1.892 -2.158,1.869 -2.206,1.848 -2.327,1.797 -2.408,1.684 -2.41,1.561 -2.413,1.406 -2.324,1.219 -2.095,1.203 z m 1.746,-1.261 c -0.015,-0.009 -0.03,-0.018 -0.043,-0.025 -0.112,-0.06 -0.261,-0.118 -0.406,-0.153 0.048,-0.209 0.134,-0.388 0.268,-0.517 0.051,-0.063 0.425,-0.385 0.691,-0.541 0.11,-0.064 0.207,-0.122 0.207,-0.122 l 0.12,0.317 c 0,0 -0.7,0.321 -0.884,0.468 -0.031,0.024 -0.054,0.055 -0.079,0.085 0.093,0.143 0.184,0.323 0.126,0.488 z m -6.404,-0.588 0.003,0.002 c 0.456,0.325 0.923,0.539 1.353,0.584 0,0 -0.515,0.639 -1.553,0.384 0.013,-0.014 0.342,-0.284 0.399,-0.442 -0.371,-0.176 -0.803,-0.478 -0.803,-0.478 l 0.601,-0.05 z m 1.287,-0.884 c 0.053,-0.251 -0.146,-0.584 -0.251,-0.8 -0.148,0.049 0.01,0.087 -0.002,0.209 -0.029,0.044 -0.07,0.053 -0.108,0.04 -0.01,0.055 -0.027,0.134 -0.038,0.183 0.139,0.111 0.38,0.171 0.399,0.368 z m -1.226,-0.184 c 0.173,-0.547 0.274,-2.002 0.274,-2.002 0,0 0.308,0.348 0.753,0.243 0.035,0.096 0.086,0.319 0.227,0.631 0.141,0.311 0.368,0.734 0.479,1.219 0.103,0.453 -0.178,1.27 -0.302,1.368 -0.586,-0.02 -1.176,-0.718 -1.504,-0.783 -0.006,-0.167 -0.005,-0.43 0.073,-0.676 z M 4.737,4.457 C 4.603,4.332 -0.322,2.351 -0.322,2.351 l -0.04,0.121 c 0,0 4.83,2.17 5.099,1.985 z M -0.166,1.413 c 0.079,0.035 0.122,0.126 0.097,0.204 l -0.13,0.395 4.006,1.715 c 1.016,0.434 1.157,0.817 1.157,0.817 0,0 -0.323,0.184 -1.339,-0.252 L -0.386,2.576 -0.536,3.028 C -0.562,3.106 -0.646,3.141 -0.725,3.107 -0.778,3.083 -0.813,3.033 -0.824,2.979 l 0.492,-1.53 C -0.294,1.402 -0.229,1.385 -0.166,1.413 z M 5.809,0.086 C 5.604,0.182 5.173,0.558 5.057,0.833 4.758,1.534 4.381,1.963 3.946,2.131 3.588,2.269 2.923,2.044 2.833,2.013 c 0,0 0.653,0.485 1.125,0.308 C 4.395,2.157 4.77,1.724 5.069,1.023 5.246,0.607 5.54,0.299 5.809,0.086 z M 4.046,2.514 C 3.379,2.753 2.692,2.081 2.488,2.054 2.568,1.967 2.651,1.882 2.731,1.795 2.871,1.848 3.024,1.903 3.18,1.94 3.457,2.007 3.76,1.943 4.027,1.256 4.267,0.636 3.988,-0.348 4.604,-0.864 5.34,-1.481 6.434,-1.184 6.434,-1.184 5.055,-0.895 4.782,0.258 4.782,0.258 6.1,-1.391 6.849,-0.673 6.849,-0.673 6.209,-0.717 5.505,0.095 5.505,0.095 c 0.703,-0.493 1.027,-0.199 1.027,-0.199 0,0 -0.907,0.371 -1.27,1.22 C 5.024,1.674 4.641,2.302 4.046,2.514 z M 9.13,-7.105 c -0.156,-0.999 0.224,-1.502 0.224,-1.502 0,0 -0.408,0.138 -0.386,1.226 0,0 0.058,0.167 0.162,0.276 z M 8.924,-9.499 C 8.99,-9.55 8.303,-9.218 8.072,-8.6 7.911,-8.167 7.912,-7.709 7.978,-7.261 8.085,-6.557 8.018,-6.084 7.876,-5.768 8.005,-5.922 8.221,-6.105 8.248,-6.356 8.297,-6.807 8.169,-7.408 8.173,-7.858 8.178,-8.537 8.396,-9.085 8.924,-9.499 z M 3.776,-9.551 c 0,-10e-4 0,-10e-4 0,-10e-4 0.037,0.052 0.075,0.104 0.106,0.155 0.059,0.097 0.116,0.197 0.172,0.299 0.215,-0.292 0.71,-0.865 1.798,-1.368 0.663,-0.306 -1.29,0.343 -2.076,0.915 z m 3.25,-3.813 c -0.035,0.117 -0.242,1.092 -0.346,1.427 -0.19,0.612 -0.297,0.555 -0.317,1.043 0.653,-0.3 0.795,-2.931 0.663,-2.47 z m -2.884,2.456 c 0.03,0.25 0.36,0.189 0.274,-0.044 -0.232,-0.631 -0.664,-1.539 -0.565,-1.916 -0.307,0.191 0.214,1.352 0.291,1.96 z M -4.573,-8.7 c -0.201,0.068 -1.979,1.012 -2.488,-0.031 -0.075,-0.14 -0.413,-0.544 -0.34,-0.344 0.009,0.021 0.323,0.613 0.435,0.807 0.424,0.734 2.851,-0.4 3.07,-0.358 0.078,-0.255 -0.546,-0.117 -0.677,-0.074 z m -1.603,2.116 c 0.308,-0.177 0.856,-0.367 1.229,-0.402 0.036,-0.074 0.137,-0.266 0.168,-0.328 -0.532,0.008 -1.133,0.482 -1.397,0.73 z M 2.308,1.363 C 2.225,1.612 1.966,1.748 1.637,1.453 L 1.02,1.284 C 1.53,1.914 1.775,1.94 2.027,1.924 2.266,1.91 2.561,1.545 2.539,1.201 2.535,1.146 2.507,0.909 2.357,0.749 2.423,0.951 2.418,1.185 2.308,1.363 z M 1.436,0.905 C 1.271,0.857 0.974,0.769 0.831,0.708 0.809,0.725 0.788,0.743 0.768,0.76 c 0.06,0.113 0.122,0.226 0.178,0.342 0,0 0.542,0.117 0.545,0.115 C 1.475,1.174 1.437,0.968 1.436,0.905 z m 8.309,-9.752 c 0.954,0.026 -0.849,0.196 -0.189,1.186 0.645,0.967 0.776,2.579 -1.071,3.216 C 7.077,-3.959 6.314,-4.857 6.024,-5.315 5.843,-5.083 5.606,-4.85 5.3,-4.616 5.121,-4.479 4.793,-4.308 4.549,-4.192 l 0,1.834 -0.617,0.061 c -0.099,0.009 -0.321,0.03 -0.614,0.055 0.004,-10e-4 0.009,-10e-4 0.013,-10e-4 10e-4,0 0.003,0 0.004,-0.001 0.042,0.146 0.207,0.755 0.223,0.998 0.012,0.198 -0.01,0.424 -0.133,0.612 -0.109,0.164 -0.942,0.969 -0.942,0.969 0,0 -0.095,0.105 0.009,0.214 C 2.673,0.709 2.76,0.926 2.774,1.147 2.812,1.728 2.42,2.022 2.36,2.068 2.118,2.254 1.861,2.206 1.794,2.191 1.01,2.025 0.434,0.677 0.434,0.677 L 1.304,0.019 C 1.302,-0.01 1.318,-0.141 1.318,-0.141 L 1.119,-0.12 c -0.069,-0.542 0.63,-0.494 1.347,0.098 0.051,-0.057 0.106,-0.112 0.16,-0.165 -0.317,-0.125 -0.928,-0.744 -1.258,-0.868 0.233,-0.042 0.512,0.171 0.7,0.321 -0.119,-0.243 -0.071,-1.046 0.186,-1.43 -0.082,0.005 -0.164,0.01 -0.247,0.015 0.004,0 0.008,0 0.011,-10e-4 -0.221,0.459 -0.214,0.973 -0.226,1.038 -0.07,-0.044 -0.87,-0.23 -0.532,0.086 0.129,0.12 0.441,0.307 0.441,0.307 l -0.095,0.108 c 0,0 -0.627,-0.289 -0.612,0.402 l 0.018,0.112 -0.211,0.03 c 0,0 -0.303,-0.434 -0.202,-1.003 0.02,-0.107 -0.151,-0.288 -0.374,-1.04 -0.411,-0.011 -0.85,-0.034 -1.259,-0.06 -0.952,1.819 -2.926,2.917 -4.555,2.497 0.274,-0.091 0.475,-0.338 0.475,-0.338 0,0 2.511,0.227 3.274,-2.219 -0.13,-0.01 -0.249,-0.02 -0.354,-0.03 -0.777,1.881 -2.763,2.005 -2.763,2.005 0,0 0.402,-0.712 0.198,-1.44 -0.15,-0.539 -0.48,-0.998 -0.617,-1.292 -0.177,-0.379 -0.211,-0.744 -0.211,-0.744 -0.13,0.037 -0.22,0.057 -0.341,0.054 0.008,-0.126 -0.273,-0.611 -0.265,-0.465 0.009,0.143 0.03,0.286 0.041,0.431 -0.136,-0.051 -0.22,-0.124 -0.23,-0.183 -0.093,-0.523 0.136,-0.725 0.229,-0.807 0.063,-0.055 0.405,0.033 0.405,0.033 0,0 -0.028,0.262 -0.023,0.332 0.014,0.161 0.223,0.27 0.233,-0.036 0.003,-0.093 -0.034,-0.26 -0.034,-0.26 0,0 0.109,-0.045 0.242,0.06 0.262,0.207 0.056,0.641 0.056,0.641 0,0 0.159,0.341 0.22,0.59 0.061,0.25 0.168,0.403 0.238,0.481 0.082,0.095 0.331,0.256 0.425,0.641 0.077,0.315 0.008,0.515 0.008,0.515 0,0 0.812,-0.739 -0.093,-2.332 0.009,-0.006 0.049,-0.031 0.191,-0.13 0.334,0.552 0.43,1.409 0.466,1.335 0.02,-0.043 -0.011,-0.879 -0.274,-1.459 0.092,-0.059 0.736,-0.505 0.869,-0.597 l 0,-0.367 c -0.47,0.28 -1.022,0.673 -1.065,0.706 -0.915,-2.058 0.025,-3.343 0.025,-3.343 -0.727,0.664 -0.804,2.147 -0.177,3.456 -0.054,0.039 -0.107,0.079 -0.158,0.122 -0.469,-0.941 -0.577,-1.503 -0.558,-1.706 -0.401,0.225 -0.891,0.245 -1.745,0.704 -0.249,0.134 -0.699,-0.047 -0.832,-0.122 -0.056,-0.033 -0.128,-0.23 -0.298,-0.349 -0.53,-0.366 -0.749,-0.499 -1.254,-0.666 -0.338,-0.114 -0.299,-0.56 -0.424,-0.758 -0.143,-0.226 -0.301,-0.608 -0.39,-1.059 -0.021,-0.106 1.165,0.521 1.206,0.673 0.042,0.153 -10e-4,0.211 -0.054,0.412 -0.08,0.301 0.21,0.037 0.273,0.416 0.165,0.152 0.906,0.523 1.104,0.572 0.189,0.047 0.417,0.313 1.131,-0.43 0.448,-0.467 1.146,-0.832 1.756,-0.892 0.026,-0.071 0.037,-0.126 0.022,-0.168 -0.08,-0.216 -1.588,0.327 -2.082,0.11 -0.494,-0.218 -0.545,-0.452 -0.705,-0.896 -0.161,-0.446 -0.445,-0.92 -0.531,-1.025 -0.086,-0.104 -0.209,-0.297 -0.219,-0.672 -0.009,-0.373 -0.031,-0.369 -0.036,-0.557 -0.005,-0.187 0.163,-0.47 0.297,-0.678 0.133,-0.209 0.274,-0.371 0.274,-0.371 0,0 0.238,0.341 0.277,0.593 0.037,0.253 0.054,0.673 0.054,0.673 0,0 -0.138,0.222 -0.257,0.32 -0.057,0.047 0.116,0.147 0.18,0.255 0.063,0.108 0.084,0.327 0.031,0.37 0.081,0.111 0.377,0.625 0.512,0.745 0.136,0.12 0.352,0.463 0.933,0.259 0.58,-0.205 1.387,-0.468 1.549,-0.491 0.159,-0.025 0.382,-0.106 0.574,0.077 0.192,0.182 0.192,0.182 0.192,0.182 0,0 0.407,-0.098 0.83,-0.197 0,0.001 0,0.001 0,0.001 0.073,-0.141 0.152,-0.278 0.232,-0.409 0.653,-1.073 2.733,-2.184 3.22,-2.184 0.331,0 1.398,0.514 2.253,1.181 0.446,-0.242 0.761,-0.403 0.712,-0.722 -0.094,-0.721 -0.258,-1.172 -0.545,-2.018 -0.112,-0.327 0.329,-0.597 0.595,-0.958 0.238,-0.385 0.414,-0.385 1.169,-0.882 -0.008,1.018 -0.309,1.481 -0.309,1.481 l -0.451,0.05 c -0.16,0.073 0.024,0.21 0.038,0.363 0.044,0.231 -0.236,0.207 -0.165,0.383 0.129,0.405 0.035,0.312 0.405,1.305 0.098,0.259 0.321,0.413 0.255,0.714 -0.571,0.192 -0.923,0.466 -1.174,0.751 0.077,0.078 0.148,0.156 0.215,0.235 C 3.66,-9.699 3.659,-9.7 3.658,-9.701 c 0.711,-0.862 1.763,-0.913 1.957,-0.992 0.785,-0.322 0.622,-0.557 0.824,-1.016 0.113,-0.253 0.239,-0.641 0.337,-1.234 0.087,-0.524 0.221,-0.76 0.52,-0.846 0.44,-0.122 0.542,-0.606 1.648,-0.935 -0.005,0.213 -0.073,0.86 -0.509,1.29 -0.289,0.042 -0.373,-0.069 -0.524,0.094 -0.154,0.163 0.051,0.476 -0.257,0.581 -0.266,0.091 -0.216,0.139 -0.295,0.56 -0.079,0.423 -0.171,1.259 -0.064,1.634 0.107,0.375 -0.205,0.332 -0.32,0.391 -0.115,0.062 -0.869,0.354 -1.087,0.956 0.331,1.166 1.055,2.367 0.345,3.595 0.168,0.168 0.853,0.356 1.344,-0.125 0.515,-0.501 -0.007,-1.3 0.063,-2.156 0.224,-2.696 2.273,-2.017 2.302,-1.848 0.029,0.174 -1.061,0.342 -1.18,1.005 -0.13,0.714 0.101,1.054 0.101,1.054 0,0 -0.118,-1.183 0.882,-1.154"
         style="fill:#151616;fill-opacity:1;fill-rule:nonzero;stroke:none"
         id="path1246" />
    </g>
    <g
       id="g1248"
       transform="matrix(16.948263,0,0,-16.948263,744.30761,92.733017)">
      <path
         inkscape:connector-curvature="0"
         d="m 0,0 0.182,0 c 0.095,0.002 0.154,0.05 0.154,0.141 0,0.095 -0.06,0.132 -0.154,0.134 L 0,0.275 0,0 z m 0,-0.517 -0.181,0 0,0.926 0.392,0 C 0.374,0.408 0.529,0.356 0.529,0.174 c 0,-0.117 -0.075,-0.197 -0.188,-0.222 0.077,-0.031 0.112,-0.057 0.131,-0.096 0.011,-0.02 0.017,-0.043 0.022,-0.07 L 0.507,-0.305 0.524,-0.421 C 0.529,-0.456 0.538,-0.49 0.552,-0.517 l -0.195,0 c -0.016,0.081 -0.025,0.162 -0.032,0.245 -0.002,0.025 -0.008,0.059 -0.021,0.087 -0.014,0.028 -0.038,0.05 -0.077,0.051 l -0.227,0 0,-0.383 z m -0.498,0.456 c 0,0.354 0.289,0.643 0.644,0.643 0.357,0 0.644,-0.289 0.644,-0.643 0,-0.356 -0.287,-0.645 -0.644,-0.645 -0.355,0 -0.644,0.289 -0.644,0.645 z m -0.129,0 c 0,0.426 0.346,0.773 0.773,0.773 0.428,0 0.774,-0.347 0.774,-0.773 0,-0.428 -0.346,-0.774 -0.774,-0.774 -0.427,0 -0.773,0.346 -0.773,0.774"
         style="fill:#151616;fill-opacity:1;fill-rule:evenodd;stroke:none"
         id="path1250" />
    </g>
    <g
       id="g1252"
       transform="matrix(16.948263,0,0,-16.948263,661.73567,231.70878)">
      <path
         inkscape:connector-curvature="0"
         d="m 0,0 c -0.286,0 -2.249,0.987 -2.851,1.977 -0.363,0.595 -0.604,1.141 -0.604,1.872 l 0,4.551 0.222,0.022 C -3.154,8.429 -1.277,8.613 0,8.613 1.276,8.613 3.153,8.429 3.232,8.422 L 3.454,8.4 l 0,-4.551 C 3.454,3.118 3.213,2.572 2.85,1.977 2.249,0.987 0.286,0 0,0"
         style="fill:#ffffff;fill-opacity:1;fill-rule:nonzero;stroke:none"
         id="path1254" />
    </g>
    <g
       id="g1256"
       transform="matrix(16.948263,0,0,-16.948263,661.73567,227.5395)">
      <path
         inkscape:connector-curvature="0"
         d="m 0,0 c 0.181,0 2.074,0.928 2.64,1.859 0.359,0.588 0.568,1.084 0.568,1.744 0,0.173 0,4.327 0,4.327 0,0 -1.929,0.19 -3.208,0.19 -1.279,0 -3.208,-0.19 -3.208,-0.19 0,0 0,-4.154 0,-4.327 0,-0.66 0.209,-1.156 0.567,-1.744 C -2.074,0.928 -0.181,0 0,0"
         style="fill:#d1083a;fill-opacity:1;fill-rule:nonzero;stroke:none"
         id="path1258" />
    </g>
    <g
       id="g1260"
       transform="matrix(16.948263,0,0,-16.948263,614.68729,99.817391)">
      <path
         inkscape:connector-curvature="0"
         d="m 0,0 0,-2.556 c 1.283,0.246 2.596,0.32 3.909,0.347 C 4.607,-2.194 5.075,-2.606 5.553,-3 l 0,3 C 4.927,0.054 3.678,0.152 2.776,0.152 1.875,0.152 0.625,0.054 0,0"
         style="fill:#fe8177;fill-opacity:1;fill-rule:nonzero;stroke:none"
         id="path1262" />
    </g>
    <g
       id="g1264"
       transform="matrix(16.948263,0,0,-16.948263,671.02332,160.37354)">
      <path
         inkscape:connector-curvature="0"
         d="m 0,0 0,-2.125 c 0.001,-0.335 -0.022,-0.587 -0.144,-0.684 -0.044,-0.035 -0.012,-0.108 0.054,-0.061 0.35,0.245 1.068,0.745 1.44,1.003 0.029,0.02 0.047,0.058 0.012,0.095 -0.105,0.113 -0.171,0.335 -0.171,0.668 l 0,3.355 c 0,0.34 0.072,0.591 0.182,0.689 C 1.41,2.974 1.401,3.019 1.349,3.018 L -0.119,2.85 C -0.179,2.85 -0.191,2.805 -0.147,2.771 -0.024,2.674 0,2.423 0,2.084 l 0,-1.325 -1.096,0 0,1.325 c 0,0.339 0.024,0.59 0.147,0.687 0.044,0.034 0.032,0.079 -0.027,0.079 L -2.444,3.018 C -2.496,3.019 -2.506,2.974 -2.468,2.94 -2.358,2.842 -2.286,2.591 -2.286,2.251 l 0,-3.355 c 0,-0.333 -0.066,-0.555 -0.172,-0.668 -0.035,-0.037 -0.017,-0.075 0.013,-0.095 0.371,-0.258 1.089,-0.758 1.439,-1.003 0.067,-0.047 0.098,0.026 0.055,0.061 -0.122,0.097 -0.146,0.349 -0.145,0.684 L -1.096,0 0,0"
         style="fill:#ffffff;fill-opacity:1;fill-rule:nonzero;stroke:none"
         id="path1266" />
    </g>
    <g
       id="g1268"
       transform="matrix(16.948263,0,0,-16.948263,621.73777,264.6901)">
      <path
         inkscape:connector-curvature="0"
         d="m 0,0 0,0.003 c 0,0.088 -0.065,0.151 -0.174,0.151 -0.107,0 -0.168,-0.062 -0.168,-0.15 l 0,-0.002 c 0,-0.088 0.065,-0.149 0.172,-0.149 C -0.062,-0.147 0,-0.085 0,0 z m -0.004,-0.26 c -0.051,-0.043 -0.116,-0.068 -0.201,-0.068 -0.215,0 -0.354,0.119 -0.354,0.32 l 0,0.002 c 0,0.2 0.154,0.347 0.378,0.347 0.133,0 0.211,-0.033 0.286,-0.108 0.071,-0.07 0.117,-0.178 0.117,-0.373 l 0,-0.003 c 0,-0.321 -0.151,-0.54 -0.433,-0.54 -0.144,0 -0.242,0.048 -0.325,0.117 l 0.114,0.166 c 0.073,-0.058 0.133,-0.085 0.217,-0.085 0.15,0 0.192,0.14 0.201,0.225 z m -1.129,0.396 -0.466,0 0,0.188 0.714,0 0,-0.164 -0.445,-0.826 -0.246,0 0.443,0.802 z m -1.091,-0.096 0,0.002 c 0,0.061 -0.052,0.117 -0.141,0.117 -0.089,0 -0.142,-0.054 -0.142,-0.115 l 0,-0.003 c 0,-0.069 0.056,-0.122 0.142,-0.122 0.086,0 0.141,0.051 0.141,0.121 z m 0.03,-0.418 0,0.003 c 0,0.077 -0.072,0.122 -0.171,0.122 -0.099,0 -0.171,-0.045 -0.171,-0.122 l 0,-0.003 c 0,-0.068 0.063,-0.123 0.171,-0.123 0.107,0 0.171,0.054 0.171,0.123 z m -0.553,-0.017 0,0.003 c 0,0.12 0.055,0.191 0.16,0.239 -0.077,0.047 -0.126,0.111 -0.126,0.217 l 0,0.003 c 0,0.151 0.138,0.271 0.348,0.271 0.209,0 0.348,-0.119 0.348,-0.271 l 0,-0.003 c 0,-0.106 -0.05,-0.17 -0.126,-0.217 0.1,-0.052 0.16,-0.116 0.16,-0.233 l 0,-0.003 c 0,-0.184 -0.163,-0.292 -0.382,-0.292 -0.219,0 -0.382,0.114 -0.382,0.286 z M -3.43,0.11 -3.603,0.068 l -0.045,0.178 0.284,0.085 0.148,0 0,-0.997 -0.214,0 0,0.776 z m 3.243,1.493 -0.301,0 0,0.201 0.82,0 0,-0.201 -0.301,0 0,-0.789 -0.218,0 0,0.789 z m -1.001,0.201 0.21805,0 0,-0.99026 -0.21805,0 0,0.99026 z m -1.293,0 0.747,0 0,-0.194 -0.53,0 0,-0.201 0.466,0 0,-0.194 -0.466,0 0,-0.207 0.537,0 0,-0.194 -0.754,0 0,0.99 z m -1.275,-0.846 0.129,0.154 c 0.089,-0.073 0.183,-0.12 0.296,-0.12 0.089,0 0.143,0.035 0.143,0.093 l 0,0.003 c 0,0.055 -0.034,0.084 -0.2,0.126 -0.199,0.051 -0.328,0.106 -0.328,0.303 l 0,0.003 c 0,0.179 0.144,0.298 0.347,0.298 0.144,0 0.267,-0.045 0.368,-0.126 L -3.115,1.528 C -3.202,1.589 -3.289,1.626 -3.372,1.626 -3.456,1.626 -3.5,1.588 -3.5,1.539 l 0,-0.002 c 0,-0.066 0.043,-0.087 0.214,-0.131 0.201,-0.052 0.314,-0.124 0.314,-0.297 l 0,-0.002 c 0,-0.197 -0.15,-0.308 -0.363,-0.308 -0.15,0 -0.302,0.053 -0.421,0.159"
         style="fill:#151616;fill-opacity:1;fill-rule:nonzero;stroke:none"
         id="path1270" />
    </g>
    <g
       id="g1272"
       transform="matrix(16.948263,0,0,-16.948263,609.19605,421.81744)">
      <path
         inkscape:connector-curvature="0"
         d="m 0,0 0,-2.372 -4.713,0 0,0.555 c 0,0 0.443,0.024 0.443,0.179 l -0.004,0.351 0,5.072 -0.003,0.438 c 0,0.175 -0.442,0.206 -0.442,0.206 l 0,0.441 3.03,0 0,-0.441 c 0,0 -0.443,-0.051 -0.443,-0.206 l 0.001,-0.438 0,-5.431 0.286,-0.001 c 1.074,0.139 1.315,1.645 1.315,1.645 L 0,0 z M 4.842,2.714 C 4.64,3.604 3.85,4.293 3.212,4.309 2.626,4.323 2.406,3.919 2.406,3.522 2.406,3.048 2.818,2.742 3.804,2.202 5.049,1.52 5.571,0.703 5.571,-0.189 5.571,-1.75 4.6,-2.54 3.371,-2.54 c -1.23,0 -1.524,0.423 -1.826,0.436 -0.005,0 0.115,0 -0.016,0 -0.129,0 -0.28,-0.265 -0.28,-0.265 l -0.456,0 0,2.369 0.519,0.008 0.019,-0.18 c 0.084,-0.799 0.874,-1.431 1.426,-1.526 0.622,-0.106 1.14,0.106 1.186,0.633 C 3.993,-0.457 3.235,0.042 2.836,0.28 1.714,0.947 0.74,1.513 0.74,2.789 c 0,1.472 1.093,2.226 2.282,2.226 1.088,0 1.54,-0.405 1.634,-0.405 0.144,0 0.196,0.267 0.196,0.267 l 0.47,0 0,-2.326 L 4.883,2.549 4.842,2.714 z m -17.184,1.509 c 0,0.189 0.444,0.205 0.444,0.205 l 0,0.442 -0.472,0 -2.391,-0.001 0,-0.442 c 0,0 0.443,-0.068 0.443,-0.204 l 0,-2.412 -1.387,0 0,2.412 c 0,0.131 0.443,0.204 0.443,0.204 l 0,0.442 -2.39,0.001 -0.471,0 0,-0.442 c 0,0 0.443,-0.039 0.443,-0.205 l 0,-5.868 c 0,-0.204 -0.437,-0.288 -0.437,-0.288 l 0,-0.418 2.857,0 0,0.429 c 0,0 -0.451,0.075 -0.451,0.277 l 0,2.565 1.399,0 0,-2.565 c 0,-0.212 -0.451,-0.277 -0.451,-0.277 l 0,-0.429 2.857,0 0,0.418 c 0,0 -0.436,0.056 -0.436,0.288 l 0,5.868 z M 10.097,4.162 10.336,4.16 c 0,0 0.67,-0.202 0.899,-1.247 l 0.073,-0.365 0.442,-0.009 0,2.348 -5.597,0 0,-2.348 0.442,0.009 0.073,0.365 c 0.229,1.045 0.9,1.247 0.9,1.247 l 0.239,0.002 0,-5.778 c 0,-0.217 -0.443,-0.307 -0.443,-0.307 l 0,-0.437 1.529,10e-4 0.6,0 1.038,-10e-4 0,0.426 c 0,0 -0.442,0.074 -0.442,0.318 l 0.008,5.778 z m 12.714,-3.036 0,2.215 c 0,0.633 -0.03,0.636 -0.183,0.861 -0.155,0.224 -0.523,0.224 -0.523,0.224 l 0,0.449 0.621,0.002 0.975,0 0.622,-0.002 0,-0.449 c 0,0 -0.42,-0.078 -0.517,-0.233 C 23.709,4.035 23.645,3.994 23.645,3.341 l -0.004,-0.143 0,-5.57 -1.313,0 -2.691,4.617 0,-2.924 c 0,-0.599 0.005,-0.679 0.179,-0.918 0.175,-0.238 0.527,-0.337 0.527,-0.337 l 0,-0.442 -0.622,-0.004 -0.975,0 -0.621,0.004 0,0.466 c 0,0 0.365,0.133 0.495,0.362 0.13,0.229 0.183,0.309 0.183,0.869 l 0,4.214 c 0,0.641 -0.132,0.656 -0.227,0.743 -0.092,0.088 -0.441,0.151 -0.441,0.151 l 0,0.441 2.457,0 2.08,-3.467 0.139,-0.277 z m -34.014,0.116 c 0,1.064 0.26,2.116 0.797,2.806 0.521,0.666 1.307,0.987 2.091,0.987 0.785,0 1.557,-0.321 2.076,-0.987 0.539,-0.69 0.812,-1.742 0.812,-2.806 0,-0.918 -0.172,-1.833 -0.583,-2.489 -0.531,-0.843 -1.407,-1.306 -2.305,-1.306 -0.89,0 -1.762,0.469 -2.291,1.302 -0.419,0.658 -0.597,1.567 -0.597,2.493 z m 2.885,-3.062 c 0.904,0.002 0.85,1.382 0.85,3.09 0,1.708 0.039,3.094 -0.85,3.09 C -9.2,4.357 -9.167,2.978 -9.167,1.27 c 0,-1.708 -0.033,-3.092 0.849,-3.09 z m 23.209,-0.552 -1.176,0 -1.413,0.003 0,0.435 c 0,0 0.444,0.085 0.444,0.321 l 0.002,0.326 0,5.51 c 0,0.183 -0.377,0.204 -0.377,0.204 l 0,0.44 2.569,0.002 2.171,-0.002 0,-2.227 -0.392,-0.003 -0.062,0.354 C 16.449,4.094 15.22,4.144 15.22,4.144 l -0.329,0.002 0,-2.419 0.262,10e-4 c 0.367,0.106 0.465,0.392 0.544,0.76 l 0.432,0.003 0,-2.306 -0.432,-0.001 C 15.618,0.552 15.52,0.819 15.153,0.926 l -0.262,0.001 0,-2.57 0.329,0.002 c 0,0 1.236,0.075 1.45,1.215 l 0.064,0.365 0.45,-0.002 0,-2.312 -2.293,0.003"
         style="fill:#151616;fill-opacity:1;fill-rule:evenodd;stroke:none"
         id="path1274" />
    </g>
  </g>
</svg>
